G75*
%MOIN*%
%OFA0B0*%
%FSLAX25Y25*%
%IPPOS*%
%LPD*%
%AMOC8*
5,1,8,0,0,1.08239X$1,22.5*
%
%ADD10C,0.13398*%
%ADD11C,0.05918*%
%ADD12C,0.06115*%
%ADD13OC8,0.08280*%
%ADD14C,0.04737*%
%ADD15C,0.05524*%
%ADD16C,0.07887*%
%ADD17C,0.10800*%
%ADD18C,0.10249*%
%ADD19R,0.03753X0.12611*%
%ADD20OC8,0.06706*%
%ADD21C,0.06650*%
D10*
X0249209Y0156283D03*
X0359446Y0156283D03*
X0359446Y0266519D03*
X0249209Y0266519D03*
D11*
X0205902Y0236598D02*
X0200784Y0236598D01*
X0200784Y0186204D02*
X0205902Y0186204D01*
D12*
X0232280Y0197622D03*
X0232280Y0207464D03*
X0232280Y0215338D03*
X0232280Y0225181D03*
D13*
X0412005Y0222425D03*
X0412005Y0200378D03*
X0412005Y0167307D03*
X0412005Y0145260D03*
X0412005Y0112189D03*
X0412005Y0255496D03*
X0412005Y0277543D03*
X0412005Y0310614D03*
D14*
X0402162Y0302740D02*
X0398225Y0302740D01*
X0398225Y0285417D02*
X0402162Y0285417D01*
X0402162Y0247622D02*
X0398225Y0247622D01*
X0398225Y0230299D02*
X0402162Y0230299D01*
X0402162Y0192504D02*
X0398225Y0192504D01*
X0398225Y0175181D02*
X0402162Y0175181D01*
X0402162Y0137386D02*
X0398225Y0137386D01*
X0398225Y0120063D02*
X0402162Y0120063D01*
D15*
X0504327Y0118094D03*
X0504327Y0139354D03*
X0504327Y0173212D03*
X0504327Y0194472D03*
X0504327Y0228330D03*
X0504327Y0249590D03*
X0504327Y0283448D03*
X0504327Y0304708D03*
D16*
X0491532Y0302937D03*
X0491532Y0285220D03*
X0517123Y0285220D03*
X0517123Y0302937D03*
X0517123Y0247819D03*
X0517123Y0230102D03*
X0491532Y0230102D03*
X0491532Y0247819D03*
X0491532Y0192700D03*
X0491532Y0174984D03*
X0517123Y0174984D03*
X0517123Y0192700D03*
X0517123Y0137582D03*
X0517123Y0119866D03*
X0491532Y0119866D03*
X0491532Y0137582D03*
D17*
X0214564Y0300141D03*
D18*
X0214564Y0280141D03*
D19*
X0494327Y0218401D03*
X0499327Y0218401D03*
X0504327Y0218401D03*
X0509327Y0218401D03*
X0514327Y0218401D03*
X0514327Y0204401D03*
X0509327Y0204401D03*
X0504327Y0204401D03*
X0499327Y0204401D03*
X0494327Y0204401D03*
D20*
X0333068Y0132661D03*
X0307083Y0132661D03*
X0307083Y0112976D03*
X0333068Y0112976D03*
D21*
X0209957Y0113043D02*
X0209957Y0118893D01*
X0219957Y0118893D02*
X0219957Y0113043D01*
X0229957Y0113043D02*
X0229957Y0118893D01*
X0229957Y0133043D02*
X0229957Y0138893D01*
X0219957Y0138893D02*
X0219957Y0133043D01*
X0209957Y0133043D02*
X0209957Y0138893D01*
M02*
