%
M48
M72
T01C0.01181
T02C0.02362
T03C0.03150
T04C0.03543
T05C0.03900
T06C0.03937
T07C0.04724
T08C0.06299
T09C0.12598
%
T01
X274800Y148409
X277556Y146441
X280312Y149197
X273225Y158252
X284249Y168094
X287398Y170063
X290548Y169275
X303934Y168488
X306690Y176756
X311808Y180693
X317320Y177543
X314170Y163370
X311414Y158252
X342910Y159826
X342910Y164157
X343304Y169669
X342516Y151559
X394485Y133842
X394485Y188960
X347241Y220456
X338973Y212976
X338973Y209826
X343698Y202740
X344879Y199984
X334249Y219275
X311020Y222819
X306690Y215732
X303934Y215732
X299603Y230299
X245272Y225181
X241335Y225181
X237398Y225181
X279131Y191716
X281099Y189354
X279131Y186204
X389760Y236204
X396847Y236204
X394485Y244078
X396847Y291323
X390154Y291323
X394485Y299197
X480705Y321637
X480705Y266913
X501178Y243685
X492516Y225968
X501178Y179118
X480705Y155889
X480705Y101165
T02
X412005Y112189
X400194Y120063
X400194Y137386
X412005Y145260
X412005Y167307
X400194Y175181
X400194Y192504
X412005Y200378
X412005Y222425
X400194Y230299
X400194Y247622
X412005Y255496
X412005Y277543
X400194Y285417
X400194Y302740
X412005Y310614
X203343Y236598
X203343Y186204
T03
X501178Y194472
X501178Y173212
X501178Y139354
X501178Y118094
X501178Y228330
X501178Y249590
X501178Y283448
X501178Y304708
T04
X232280Y225181
X232280Y215338
X232280Y207464
X232280Y197622
T05
X209957Y115968
X219957Y115968
X229957Y115968
X229957Y135968
X219957Y135968
X209957Y135968
T06
X307083Y132661
X333068Y132661
X333068Y112976
X307083Y112976
T07
X488383Y119866
X488383Y137582
X513973Y137582
X513973Y119866
X513973Y174984
X513973Y192700
X488383Y192700
X488383Y174984
X488383Y230102
X513973Y230102
X513973Y247819
X488383Y247819
X488383Y285220
X513973Y285220
X513973Y302937
X488383Y302937
T08
X214564Y300141
X214564Y280141
T09
X249209Y266519
X359446Y266519
X359446Y156283
X249209Y156283
M30
