%
M48
M72
T01C0.01181
T02C0.02362
T03C0.03150
T04C0.03543
T05C0.03937
T06C0.04724
T07C0.06299
T08C0.12598
%
T01
X275194Y148409
X277949Y146047
X273225Y158252
X284249Y168094
X287398Y170063
X290548Y169275
X303934Y168488
X306690Y176756
X311808Y180693
X317320Y177543
X314170Y163370
X311414Y158252
X342910Y159826
X342910Y164157
X343304Y169669
X342516Y151559
X394485Y133842
X394485Y188960
X347241Y220456
X338973Y212976
X338973Y209826
X343698Y202740
X344879Y199984
X334249Y219275
X311020Y222819
X306690Y215732
X303934Y215732
X299603Y230299
X245272Y225181
X241335Y225181
X237398Y225181
X279131Y191716
X281099Y189354
X279131Y186204
X389760Y236204
X396847Y236204
X394485Y244078
X396847Y291323
X390154Y291323
X394485Y299197
X483855Y321637
X483855Y266913
X504327Y243685
X495666Y225968
X504327Y179118
X483855Y155889
X483855Y101165
T02
X203343Y186204
X203343Y236598
X400194Y230299
X412005Y222425
X412005Y200378
X400194Y192504
X400194Y175181
X412005Y167307
X412005Y145260
X400194Y137386
X400194Y120063
X412005Y112189
X400194Y247622
X412005Y255496
X412005Y277543
X400194Y285417
X400194Y302740
X412005Y310614
T03
X504327Y304708
X504327Y283448
X504327Y249590
X504327Y228330
X504327Y194472
X504327Y173212
X504327Y139354
X504327Y118094
T04
X232280Y197622
X232280Y207464
X232280Y215338
X232280Y225181
T05
X307083Y132661
X333068Y132661
X333068Y112976
X307083Y112976
T06
X491532Y119866
X491532Y137582
X517123Y137582
X517123Y119866
X517123Y174984
X517123Y192700
X491532Y192700
X491532Y174984
X491532Y230102
X491532Y247819
X517123Y247819
X517123Y230102
X517123Y285220
X517123Y302937
X491532Y302937
X491532Y285220
T07
X214564Y280141
X214564Y300141
T08
X249209Y266519
X359446Y266519
X359446Y156283
X249209Y156283
M30
