G75*
%MOIN*%
%OFA0B0*%
%FSLAX25Y25*%
%IPPOS*%
%LPD*%
%AMOC8*
5,1,8,0,0,1.08239X$1,22.5*
%
%ADD10C,0.05118*%
%ADD11C,0.05315*%
%ADD12OC8,0.07480*%
%ADD13C,0.03937*%
%ADD14C,0.04724*%
%ADD15C,0.07087*%
%ADD16C,0.10000*%
%ADD17C,0.09449*%
%ADD18R,0.02953X0.11811*%
%ADD19OC8,0.05906*%
%ADD20C,0.01181*%
%ADD21C,0.02362*%
%ADD22C,0.00787*%
%ADD23C,0.01575*%
%ADD24C,0.03150*%
%ADD25C,0.00984*%
D10*
X0200784Y0186204D02*
X0205902Y0186204D01*
X0205902Y0236598D02*
X0200784Y0236598D01*
D11*
X0232280Y0225181D03*
X0232280Y0215338D03*
X0232280Y0207464D03*
X0232280Y0197622D03*
D12*
X0412005Y0200378D03*
X0412005Y0222425D03*
X0412005Y0255496D03*
X0412005Y0277543D03*
X0412005Y0310614D03*
X0412005Y0167307D03*
X0412005Y0145260D03*
X0412005Y0112189D03*
D13*
X0402162Y0120063D02*
X0398225Y0120063D01*
X0398225Y0137386D02*
X0402162Y0137386D01*
X0402162Y0175181D02*
X0398225Y0175181D01*
X0398225Y0192504D02*
X0402162Y0192504D01*
X0402162Y0230299D02*
X0398225Y0230299D01*
X0398225Y0247622D02*
X0402162Y0247622D01*
X0402162Y0285417D02*
X0398225Y0285417D01*
X0398225Y0302740D02*
X0402162Y0302740D01*
D14*
X0504327Y0304708D03*
X0504327Y0283448D03*
X0504327Y0249590D03*
X0504327Y0228330D03*
X0504327Y0194472D03*
X0504327Y0173212D03*
X0504327Y0139354D03*
X0504327Y0118094D03*
D15*
X0491532Y0119866D03*
X0491532Y0137582D03*
X0517123Y0137582D03*
X0517123Y0119866D03*
X0517123Y0174984D03*
X0517123Y0192700D03*
X0491532Y0192700D03*
X0491532Y0174984D03*
X0491532Y0230102D03*
X0491532Y0247819D03*
X0517123Y0247819D03*
X0517123Y0230102D03*
X0517123Y0285220D03*
X0517123Y0302937D03*
X0491532Y0302937D03*
X0491532Y0285220D03*
D16*
X0214564Y0300141D03*
D17*
X0214564Y0280141D03*
D18*
X0494327Y0218401D03*
X0499327Y0218401D03*
X0504327Y0218401D03*
X0509327Y0218401D03*
X0514327Y0218401D03*
X0514327Y0204401D03*
X0509327Y0204401D03*
X0504327Y0204401D03*
X0499327Y0204401D03*
X0494327Y0204401D03*
D19*
X0333068Y0132661D03*
X0307083Y0132661D03*
X0307083Y0112976D03*
X0333068Y0112976D03*
D20*
X0193107Y0102149D02*
X0193107Y0320653D01*
X0258068Y0320653D01*
X0258068Y0307647D01*
X0259296Y0303465D01*
X0261652Y0299798D01*
X0264946Y0296944D01*
X0268911Y0295133D01*
X0273225Y0294513D01*
X0273225Y0294513D01*
X0277539Y0295133D01*
X0277539Y0295133D01*
X0281504Y0296944D01*
X0281504Y0296944D01*
X0284798Y0299798D01*
X0284798Y0299798D01*
X0284798Y0299798D01*
X0287155Y0303465D01*
X0288383Y0307647D01*
X0288383Y0320653D01*
X0415548Y0320653D01*
X0415548Y0314030D01*
X0414043Y0315535D01*
X0409966Y0315535D01*
X0407083Y0312652D01*
X0407083Y0308575D01*
X0409966Y0305693D01*
X0414043Y0305693D01*
X0415548Y0307197D01*
X0415548Y0280959D01*
X0414043Y0282464D01*
X0409966Y0282464D01*
X0407083Y0279581D01*
X0407083Y0275505D01*
X0409966Y0272622D01*
X0414043Y0272622D01*
X0415548Y0274127D01*
X0415548Y0258912D01*
X0414043Y0260417D01*
X0409966Y0260417D01*
X0407083Y0257534D01*
X0407083Y0253457D01*
X0409966Y0250574D01*
X0414043Y0250574D01*
X0415548Y0252079D01*
X0415548Y0225841D01*
X0414043Y0227346D01*
X0409966Y0227346D01*
X0407083Y0224463D01*
X0407083Y0220386D01*
X0409966Y0217504D01*
X0414043Y0217504D01*
X0415548Y0219008D01*
X0415548Y0203794D01*
X0414043Y0205299D01*
X0409966Y0205299D01*
X0407083Y0202416D01*
X0407083Y0198339D01*
X0409966Y0195456D01*
X0414043Y0195456D01*
X0415548Y0196961D01*
X0415548Y0170723D01*
X0414043Y0172228D01*
X0409966Y0172228D01*
X0407083Y0169345D01*
X0407083Y0165268D01*
X0409966Y0162386D01*
X0414043Y0162386D01*
X0415548Y0163890D01*
X0415548Y0148676D01*
X0414043Y0150181D01*
X0409966Y0150181D01*
X0407083Y0147298D01*
X0407083Y0143221D01*
X0409966Y0140338D01*
X0414043Y0140338D01*
X0415548Y0141843D01*
X0415548Y0115605D01*
X0414043Y0117110D01*
X0409966Y0117110D01*
X0407083Y0114227D01*
X0407083Y0110150D01*
X0409966Y0107267D01*
X0414043Y0107267D01*
X0415548Y0108772D01*
X0415548Y0102149D01*
X0288383Y0102149D01*
X0288383Y0115155D01*
X0287155Y0119337D01*
X0284798Y0123004D01*
X0281504Y0125858D01*
X0277539Y0127669D01*
X0273225Y0128289D01*
X0268911Y0127669D01*
X0268911Y0127669D01*
X0264946Y0125858D01*
X0261652Y0123004D01*
X0259296Y0119337D01*
X0258068Y0115155D01*
X0258068Y0102149D01*
X0193107Y0102149D01*
X0193107Y0102285D02*
X0258068Y0102285D01*
X0258068Y0103465D02*
X0193107Y0103465D01*
X0193107Y0104644D02*
X0258068Y0104644D01*
X0258068Y0105824D02*
X0193107Y0105824D01*
X0193107Y0107004D02*
X0258068Y0107004D01*
X0258068Y0108183D02*
X0193107Y0108183D01*
X0193107Y0109363D02*
X0258068Y0109363D01*
X0258068Y0110542D02*
X0193107Y0110542D01*
X0193107Y0111722D02*
X0258068Y0111722D01*
X0258068Y0112902D02*
X0193107Y0112902D01*
X0193107Y0114081D02*
X0258068Y0114081D01*
X0258099Y0115261D02*
X0193107Y0115261D01*
X0193107Y0116440D02*
X0258445Y0116440D01*
X0258791Y0117620D02*
X0193107Y0117620D01*
X0193107Y0118800D02*
X0259138Y0118800D01*
X0259296Y0119337D02*
X0259296Y0119337D01*
X0259708Y0119979D02*
X0193107Y0119979D01*
X0193107Y0121159D02*
X0260466Y0121159D01*
X0261224Y0122339D02*
X0193107Y0122339D01*
X0193107Y0123518D02*
X0262245Y0123518D01*
X0261652Y0123004D02*
X0261652Y0123004D01*
X0261652Y0123004D01*
X0263607Y0124698D02*
X0193107Y0124698D01*
X0193107Y0125877D02*
X0264987Y0125877D01*
X0264946Y0125858D02*
X0264946Y0125858D01*
X0267570Y0127057D02*
X0193107Y0127057D01*
X0193107Y0128237D02*
X0272858Y0128237D01*
X0273225Y0128289D02*
X0273225Y0128289D01*
X0273592Y0128237D02*
X0415548Y0128237D01*
X0415548Y0129416D02*
X0335669Y0129416D01*
X0334780Y0128527D02*
X0337201Y0130949D01*
X0337201Y0134373D01*
X0334780Y0136795D01*
X0331439Y0136795D01*
X0329077Y0139157D01*
X0287345Y0139157D01*
X0280312Y0146190D01*
X0280312Y0147025D01*
X0278928Y0148409D01*
X0277556Y0148409D01*
X0277556Y0149388D01*
X0276172Y0150771D01*
X0274215Y0150771D01*
X0272831Y0149388D01*
X0272831Y0147431D01*
X0273422Y0146840D01*
X0273422Y0142557D01*
X0284052Y0131927D01*
X0285090Y0130889D01*
X0303009Y0130889D01*
X0305371Y0128527D01*
X0308796Y0128527D01*
X0311217Y0130949D01*
X0311217Y0134373D01*
X0309977Y0135614D01*
X0327609Y0135614D01*
X0328934Y0134289D01*
X0328934Y0130949D01*
X0331355Y0128527D01*
X0334780Y0128527D01*
X0336848Y0130596D02*
X0415548Y0130596D01*
X0415548Y0131775D02*
X0337201Y0131775D01*
X0337201Y0132955D02*
X0415548Y0132955D01*
X0415548Y0134135D02*
X0337201Y0134135D01*
X0336261Y0135314D02*
X0395842Y0135314D01*
X0395555Y0135601D02*
X0396441Y0134715D01*
X0397599Y0134236D01*
X0402789Y0134236D01*
X0403946Y0134715D01*
X0404832Y0135601D01*
X0405312Y0136759D01*
X0405312Y0138012D01*
X0404832Y0139170D01*
X0403946Y0140056D01*
X0402789Y0140535D01*
X0397599Y0140535D01*
X0396441Y0140056D01*
X0395555Y0139170D01*
X0395075Y0138012D01*
X0395075Y0136759D01*
X0395555Y0135601D01*
X0395185Y0136494D02*
X0335081Y0136494D01*
X0333068Y0132661D02*
X0328343Y0137386D01*
X0286611Y0137386D01*
X0277949Y0146047D01*
X0279047Y0148290D02*
X0347467Y0148290D01*
X0347947Y0147460D02*
X0350622Y0144784D01*
X0353899Y0142892D01*
X0357554Y0141913D01*
X0361337Y0141913D01*
X0364992Y0142892D01*
X0368269Y0144784D01*
X0370944Y0147460D01*
X0372836Y0150736D01*
X0373816Y0154391D01*
X0373816Y0158175D01*
X0372836Y0161830D01*
X0370944Y0165107D01*
X0368269Y0167782D01*
X0364992Y0169674D01*
X0361337Y0170653D01*
X0357554Y0170653D01*
X0353899Y0169674D01*
X0350622Y0167782D01*
X0347947Y0165107D01*
X0347831Y0164907D01*
X0347831Y0166072D01*
X0346794Y0167110D01*
X0345439Y0168464D01*
X0345666Y0168691D01*
X0345666Y0170647D01*
X0344282Y0172031D01*
X0342325Y0172031D01*
X0341735Y0171441D01*
X0321990Y0171441D01*
X0315942Y0177489D01*
X0314904Y0178527D01*
X0308259Y0178527D01*
X0307668Y0179118D01*
X0305711Y0179118D01*
X0304327Y0177734D01*
X0304327Y0175777D01*
X0305711Y0174393D01*
X0307668Y0174393D01*
X0308259Y0174984D01*
X0313436Y0174984D01*
X0317767Y0170653D01*
X0311468Y0170653D01*
X0311074Y0170260D01*
X0305503Y0170260D01*
X0304912Y0170850D01*
X0302955Y0170850D01*
X0301572Y0169466D01*
X0301572Y0167509D01*
X0301971Y0167110D01*
X0295219Y0167110D01*
X0292910Y0169419D01*
X0292910Y0170254D01*
X0291526Y0171637D01*
X0289569Y0171637D01*
X0289367Y0171435D01*
X0288377Y0172425D01*
X0286420Y0172425D01*
X0285036Y0171041D01*
X0285036Y0170456D01*
X0283270Y0170456D01*
X0281886Y0169073D01*
X0281886Y0167116D01*
X0283270Y0165732D01*
X0284105Y0165732D01*
X0300050Y0149787D01*
X0340947Y0149787D01*
X0341538Y0149197D01*
X0343495Y0149197D01*
X0344879Y0150580D01*
X0344879Y0152537D01*
X0343495Y0153921D01*
X0341538Y0153921D01*
X0340947Y0153330D01*
X0301518Y0153330D01*
X0293250Y0161598D01*
X0312601Y0161598D01*
X0313191Y0161008D01*
X0315148Y0161008D01*
X0316532Y0162391D01*
X0316532Y0163620D01*
X0317767Y0162386D01*
X0341341Y0162386D01*
X0341735Y0161992D01*
X0340548Y0160805D01*
X0340548Y0158848D01*
X0341932Y0157464D01*
X0343889Y0157464D01*
X0345250Y0158825D01*
X0345075Y0158175D01*
X0345075Y0154391D01*
X0346055Y0150736D01*
X0347947Y0147460D01*
X0348296Y0147110D02*
X0280227Y0147110D01*
X0280571Y0145931D02*
X0349476Y0145931D01*
X0350679Y0144751D02*
X0281751Y0144751D01*
X0282930Y0143572D02*
X0352722Y0143572D01*
X0355766Y0142392D02*
X0284110Y0142392D01*
X0285290Y0141212D02*
X0409092Y0141212D01*
X0407912Y0142392D02*
X0363125Y0142392D01*
X0366169Y0143572D02*
X0407083Y0143572D01*
X0407083Y0144751D02*
X0368212Y0144751D01*
X0369416Y0145931D02*
X0407083Y0145931D01*
X0407083Y0147110D02*
X0370595Y0147110D01*
X0371424Y0148290D02*
X0408075Y0148290D01*
X0409255Y0149470D02*
X0372105Y0149470D01*
X0372786Y0150649D02*
X0415548Y0150649D01*
X0415548Y0149470D02*
X0414754Y0149470D01*
X0415548Y0151829D02*
X0373129Y0151829D01*
X0373445Y0153008D02*
X0415548Y0153008D01*
X0415548Y0154188D02*
X0373761Y0154188D01*
X0373816Y0155368D02*
X0415548Y0155368D01*
X0415548Y0156547D02*
X0373816Y0156547D01*
X0373816Y0157727D02*
X0415548Y0157727D01*
X0415548Y0158907D02*
X0373620Y0158907D01*
X0373304Y0160086D02*
X0415548Y0160086D01*
X0415548Y0161266D02*
X0372987Y0161266D01*
X0372481Y0162445D02*
X0409906Y0162445D01*
X0408727Y0163625D02*
X0371800Y0163625D01*
X0371119Y0164805D02*
X0407547Y0164805D01*
X0407083Y0165984D02*
X0370067Y0165984D01*
X0368887Y0167164D02*
X0407083Y0167164D01*
X0407083Y0168343D02*
X0367297Y0168343D01*
X0365253Y0169523D02*
X0407261Y0169523D01*
X0408441Y0170703D02*
X0345611Y0170703D01*
X0345666Y0169523D02*
X0353638Y0169523D01*
X0351594Y0168343D02*
X0345560Y0168343D01*
X0346740Y0167164D02*
X0350004Y0167164D01*
X0348824Y0165984D02*
X0347831Y0165984D01*
X0346060Y0165338D02*
X0346060Y0162976D01*
X0342910Y0159826D01*
X0340548Y0160086D02*
X0294762Y0160086D01*
X0295942Y0158907D02*
X0340548Y0158907D01*
X0341669Y0157727D02*
X0297121Y0157727D01*
X0298301Y0156547D02*
X0345075Y0156547D01*
X0345075Y0155368D02*
X0299481Y0155368D01*
X0300660Y0154188D02*
X0345130Y0154188D01*
X0345446Y0153008D02*
X0344407Y0153008D01*
X0344879Y0151829D02*
X0345762Y0151829D01*
X0346105Y0150649D02*
X0344879Y0150649D01*
X0343768Y0149470D02*
X0346786Y0149470D01*
X0342516Y0151559D02*
X0300784Y0151559D01*
X0284249Y0168094D01*
X0281886Y0168343D02*
X0274800Y0168343D01*
X0274800Y0167164D02*
X0281886Y0167164D01*
X0283018Y0165984D02*
X0274800Y0165984D01*
X0274800Y0164805D02*
X0285033Y0164805D01*
X0286212Y0163625D02*
X0274800Y0163625D01*
X0274800Y0162445D02*
X0287392Y0162445D01*
X0288572Y0161266D02*
X0274800Y0161266D01*
X0274800Y0160086D02*
X0289751Y0160086D01*
X0290931Y0158907D02*
X0275587Y0158907D01*
X0275587Y0159230D02*
X0274800Y0160018D01*
X0274800Y0188702D01*
X0276802Y0190704D01*
X0278152Y0189354D01*
X0278737Y0189354D01*
X0278737Y0188376D01*
X0280121Y0186992D01*
X0282078Y0186992D01*
X0282766Y0187681D01*
X0334942Y0187681D01*
X0344883Y0197622D01*
X0345857Y0197622D01*
X0347241Y0199005D01*
X0347241Y0200962D01*
X0346060Y0202143D01*
X0346060Y0203718D01*
X0344710Y0205068D01*
X0348816Y0209174D01*
X0348816Y0218691D01*
X0349603Y0219478D01*
X0349603Y0221435D01*
X0348219Y0222819D01*
X0346262Y0222819D01*
X0344879Y0221435D01*
X0344879Y0219478D01*
X0345666Y0218691D01*
X0345666Y0210479D01*
X0330840Y0195653D01*
X0277297Y0195653D01*
X0271650Y0190006D01*
X0271650Y0160018D01*
X0270863Y0159230D01*
X0270863Y0157273D01*
X0272247Y0155889D01*
X0274204Y0155889D01*
X0275587Y0157273D01*
X0275587Y0159230D01*
X0275587Y0157727D02*
X0292110Y0157727D01*
X0293290Y0156547D02*
X0274861Y0156547D01*
X0271589Y0156547D02*
X0263579Y0156547D01*
X0263579Y0155368D02*
X0294470Y0155368D01*
X0295649Y0154188D02*
X0263525Y0154188D01*
X0263579Y0154391D02*
X0262600Y0150736D01*
X0260708Y0147460D01*
X0258033Y0144784D01*
X0254756Y0142892D01*
X0251101Y0141913D01*
X0247317Y0141913D01*
X0243663Y0142892D01*
X0240386Y0144784D01*
X0237710Y0147460D01*
X0235819Y0150736D01*
X0234839Y0154391D01*
X0234839Y0158175D01*
X0235819Y0161830D01*
X0237710Y0165107D01*
X0240386Y0167782D01*
X0243663Y0169674D01*
X0247317Y0170653D01*
X0251101Y0170653D01*
X0254756Y0169674D01*
X0258033Y0167782D01*
X0260708Y0165107D01*
X0262600Y0161830D01*
X0263579Y0158175D01*
X0263579Y0154391D01*
X0263209Y0153008D02*
X0296829Y0153008D01*
X0298008Y0151829D02*
X0262893Y0151829D01*
X0262550Y0150649D02*
X0274093Y0150649D01*
X0272913Y0149470D02*
X0261869Y0149470D01*
X0261188Y0148290D02*
X0272831Y0148290D01*
X0273152Y0147110D02*
X0260359Y0147110D01*
X0259179Y0145931D02*
X0273422Y0145931D01*
X0273422Y0144751D02*
X0257976Y0144751D01*
X0255932Y0143572D02*
X0273422Y0143572D01*
X0273587Y0142392D02*
X0252888Y0142392D01*
X0245530Y0142392D02*
X0193107Y0142392D01*
X0193107Y0143572D02*
X0242486Y0143572D01*
X0240443Y0144751D02*
X0193107Y0144751D01*
X0193107Y0145931D02*
X0239239Y0145931D01*
X0238060Y0147110D02*
X0193107Y0147110D01*
X0193107Y0148290D02*
X0237231Y0148290D01*
X0236550Y0149470D02*
X0193107Y0149470D01*
X0193107Y0150649D02*
X0235869Y0150649D01*
X0235526Y0151829D02*
X0193107Y0151829D01*
X0193107Y0153008D02*
X0235210Y0153008D01*
X0234894Y0154188D02*
X0193107Y0154188D01*
X0193107Y0155368D02*
X0234839Y0155368D01*
X0234839Y0156547D02*
X0193107Y0156547D01*
X0193107Y0157727D02*
X0234839Y0157727D01*
X0235035Y0158907D02*
X0193107Y0158907D01*
X0193107Y0160086D02*
X0235351Y0160086D01*
X0235667Y0161266D02*
X0193107Y0161266D01*
X0193107Y0162445D02*
X0236174Y0162445D01*
X0236855Y0163625D02*
X0193107Y0163625D01*
X0193107Y0164805D02*
X0237536Y0164805D01*
X0238588Y0165984D02*
X0193107Y0165984D01*
X0193107Y0167164D02*
X0239768Y0167164D01*
X0241358Y0168343D02*
X0193107Y0168343D01*
X0193107Y0169523D02*
X0243401Y0169523D01*
X0255017Y0169523D02*
X0271650Y0169523D01*
X0271650Y0168343D02*
X0257060Y0168343D01*
X0258651Y0167164D02*
X0271650Y0167164D01*
X0271650Y0165984D02*
X0259831Y0165984D01*
X0260883Y0164805D02*
X0271650Y0164805D01*
X0271650Y0163625D02*
X0261564Y0163625D01*
X0262245Y0162445D02*
X0271650Y0162445D01*
X0271650Y0161266D02*
X0262751Y0161266D01*
X0263067Y0160086D02*
X0271650Y0160086D01*
X0270863Y0158907D02*
X0263383Y0158907D01*
X0263579Y0157727D02*
X0270863Y0157727D01*
X0276294Y0150649D02*
X0299188Y0150649D01*
X0293583Y0161266D02*
X0312933Y0161266D01*
X0314170Y0163370D02*
X0292123Y0163370D01*
X0287398Y0168094D01*
X0287398Y0170063D01*
X0285877Y0171882D02*
X0274800Y0171882D01*
X0274800Y0170703D02*
X0285036Y0170703D01*
X0282337Y0169523D02*
X0274800Y0169523D01*
X0271650Y0170703D02*
X0193107Y0170703D01*
X0193107Y0171882D02*
X0271650Y0171882D01*
X0271650Y0173062D02*
X0193107Y0173062D01*
X0193107Y0174242D02*
X0271650Y0174242D01*
X0271650Y0175421D02*
X0193107Y0175421D01*
X0193107Y0176601D02*
X0271650Y0176601D01*
X0271650Y0177780D02*
X0193107Y0177780D01*
X0193107Y0178960D02*
X0271650Y0178960D01*
X0271650Y0180140D02*
X0193107Y0180140D01*
X0193107Y0181319D02*
X0271650Y0181319D01*
X0271650Y0182499D02*
X0206730Y0182499D01*
X0206646Y0182464D02*
X0208021Y0183034D01*
X0209073Y0184086D01*
X0209642Y0185460D01*
X0209642Y0186948D01*
X0209073Y0188323D01*
X0208021Y0189375D01*
X0206646Y0189945D01*
X0200040Y0189945D01*
X0198665Y0189375D01*
X0197613Y0188323D01*
X0197044Y0186948D01*
X0197044Y0185460D01*
X0197613Y0184086D01*
X0198665Y0183034D01*
X0200040Y0182464D01*
X0206646Y0182464D01*
X0208666Y0183678D02*
X0271650Y0183678D01*
X0271650Y0184858D02*
X0209393Y0184858D01*
X0209642Y0186038D02*
X0271650Y0186038D01*
X0271650Y0187217D02*
X0209531Y0187217D01*
X0208999Y0188397D02*
X0271650Y0188397D01*
X0271650Y0189577D02*
X0207535Y0189577D01*
X0199152Y0189577D02*
X0193107Y0189577D01*
X0193107Y0190756D02*
X0272400Y0190756D01*
X0273580Y0191936D02*
X0193107Y0191936D01*
X0193107Y0193115D02*
X0274759Y0193115D01*
X0275939Y0194295D02*
X0234279Y0194295D01*
X0234455Y0194368D02*
X0235534Y0195447D01*
X0236119Y0196858D01*
X0236119Y0198385D01*
X0235534Y0199796D01*
X0234455Y0200876D01*
X0233044Y0201460D01*
X0231517Y0201460D01*
X0230106Y0200876D01*
X0229026Y0199796D01*
X0228442Y0198385D01*
X0228442Y0196858D01*
X0229026Y0195447D01*
X0230106Y0194368D01*
X0231517Y0193783D01*
X0233044Y0193783D01*
X0234455Y0194368D01*
X0235546Y0195475D02*
X0277119Y0195475D01*
X0277930Y0189577D02*
X0275675Y0189577D01*
X0274800Y0188397D02*
X0278737Y0188397D01*
X0279895Y0187217D02*
X0274800Y0187217D01*
X0274800Y0186038D02*
X0415548Y0186038D01*
X0415548Y0187217D02*
X0282303Y0187217D01*
X0274800Y0184858D02*
X0415548Y0184858D01*
X0415548Y0183678D02*
X0274800Y0183678D01*
X0274800Y0182499D02*
X0415548Y0182499D01*
X0415548Y0181319D02*
X0274800Y0181319D01*
X0274800Y0180140D02*
X0415548Y0180140D01*
X0415548Y0178960D02*
X0307826Y0178960D01*
X0305553Y0178960D02*
X0274800Y0178960D01*
X0274800Y0177780D02*
X0304374Y0177780D01*
X0304327Y0176601D02*
X0274800Y0176601D01*
X0274800Y0175421D02*
X0304683Y0175421D01*
X0306690Y0176756D02*
X0314170Y0176756D01*
X0321257Y0169669D01*
X0343304Y0169669D01*
X0344431Y0171882D02*
X0409620Y0171882D01*
X0414389Y0171882D02*
X0415548Y0171882D01*
X0415548Y0173062D02*
X0404497Y0173062D01*
X0404832Y0173397D02*
X0405312Y0174554D01*
X0405312Y0175807D01*
X0404832Y0176965D01*
X0403946Y0177851D01*
X0402789Y0178330D01*
X0397599Y0178330D01*
X0396441Y0177851D01*
X0395555Y0176965D01*
X0395075Y0175807D01*
X0395075Y0174554D01*
X0395555Y0173397D01*
X0396441Y0172511D01*
X0397599Y0172031D01*
X0402789Y0172031D01*
X0403946Y0172511D01*
X0404832Y0173397D01*
X0405182Y0174242D02*
X0415548Y0174242D01*
X0415548Y0175421D02*
X0405312Y0175421D01*
X0404983Y0176601D02*
X0415548Y0176601D01*
X0415548Y0177780D02*
X0404017Y0177780D01*
X0396370Y0177780D02*
X0315651Y0177780D01*
X0316830Y0176601D02*
X0395404Y0176601D01*
X0395075Y0175421D02*
X0318010Y0175421D01*
X0319189Y0174242D02*
X0395205Y0174242D01*
X0395890Y0173062D02*
X0320369Y0173062D01*
X0321549Y0171882D02*
X0342176Y0171882D01*
X0344485Y0166913D02*
X0346060Y0165338D01*
X0344485Y0166913D02*
X0320075Y0166913D01*
X0318107Y0168882D01*
X0312201Y0168882D01*
X0311808Y0168488D01*
X0303934Y0168488D01*
X0301572Y0168343D02*
X0293985Y0168343D01*
X0292910Y0169523D02*
X0301628Y0169523D01*
X0302808Y0170703D02*
X0292461Y0170703D01*
X0290548Y0169275D02*
X0294485Y0165338D01*
X0311414Y0165338D01*
X0312989Y0166913D01*
X0315745Y0166913D01*
X0318501Y0164157D01*
X0342910Y0164157D01*
X0341009Y0161266D02*
X0315407Y0161266D01*
X0316532Y0162445D02*
X0317707Y0162445D01*
X0317717Y0170703D02*
X0305060Y0170703D01*
X0301917Y0167164D02*
X0295165Y0167164D01*
X0288919Y0171882D02*
X0316538Y0171882D01*
X0315358Y0173062D02*
X0274800Y0173062D01*
X0274800Y0174242D02*
X0314178Y0174242D01*
X0335658Y0188397D02*
X0415548Y0188397D01*
X0415548Y0189577D02*
X0403326Y0189577D01*
X0402789Y0189354D02*
X0403946Y0189834D01*
X0404832Y0190720D01*
X0405312Y0191877D01*
X0405312Y0193130D01*
X0404832Y0194288D01*
X0403946Y0195174D01*
X0402789Y0195653D01*
X0397599Y0195653D01*
X0396441Y0195174D01*
X0395555Y0194288D01*
X0395075Y0193130D01*
X0395075Y0191877D01*
X0395555Y0190720D01*
X0396441Y0189834D01*
X0397599Y0189354D01*
X0402789Y0189354D01*
X0404847Y0190756D02*
X0415548Y0190756D01*
X0415548Y0191936D02*
X0405312Y0191936D01*
X0405312Y0193115D02*
X0415548Y0193115D01*
X0415548Y0194295D02*
X0404825Y0194295D01*
X0403220Y0195475D02*
X0409948Y0195475D01*
X0408768Y0196654D02*
X0343915Y0196654D01*
X0342736Y0195475D02*
X0397167Y0195475D01*
X0395562Y0194295D02*
X0341556Y0194295D01*
X0340376Y0193115D02*
X0395075Y0193115D01*
X0395075Y0191936D02*
X0339197Y0191936D01*
X0338017Y0190756D02*
X0395540Y0190756D01*
X0397061Y0189577D02*
X0336837Y0189577D01*
X0331841Y0196654D02*
X0236034Y0196654D01*
X0236119Y0197834D02*
X0333021Y0197834D01*
X0334201Y0199013D02*
X0235859Y0199013D01*
X0235137Y0200193D02*
X0335380Y0200193D01*
X0336560Y0201373D02*
X0233255Y0201373D01*
X0231305Y0201373D02*
X0193107Y0201373D01*
X0193107Y0202552D02*
X0337740Y0202552D01*
X0338919Y0203732D02*
X0233300Y0203732D01*
X0233044Y0203626D02*
X0234455Y0204210D01*
X0235534Y0205290D01*
X0236119Y0206701D01*
X0236119Y0208228D01*
X0235870Y0208827D01*
X0236082Y0209039D01*
X0336611Y0209039D01*
X0336611Y0208848D01*
X0337995Y0207464D01*
X0339952Y0207464D01*
X0341335Y0208848D01*
X0341335Y0210805D01*
X0340739Y0211401D01*
X0341335Y0211998D01*
X0341335Y0213955D01*
X0339952Y0215338D01*
X0337995Y0215338D01*
X0336611Y0213955D01*
X0336611Y0213763D01*
X0236082Y0213763D01*
X0235870Y0213975D01*
X0236119Y0214575D01*
X0236119Y0216102D01*
X0235534Y0217513D01*
X0234455Y0218592D01*
X0233044Y0219177D01*
X0231517Y0219177D01*
X0230106Y0218592D01*
X0229026Y0217513D01*
X0228442Y0216102D01*
X0228442Y0214575D01*
X0229026Y0213164D01*
X0230106Y0212084D01*
X0231517Y0211500D01*
X0233044Y0211500D01*
X0233643Y0211748D01*
X0233990Y0211401D01*
X0233643Y0211054D01*
X0233044Y0211303D01*
X0231517Y0211303D01*
X0230106Y0210718D01*
X0229026Y0209639D01*
X0228442Y0208228D01*
X0228442Y0206701D01*
X0229026Y0205290D01*
X0230106Y0204210D01*
X0231517Y0203626D01*
X0233044Y0203626D01*
X0231260Y0203732D02*
X0193107Y0203732D01*
X0193107Y0204911D02*
X0229404Y0204911D01*
X0228694Y0206091D02*
X0193107Y0206091D01*
X0193107Y0207271D02*
X0228442Y0207271D01*
X0228534Y0208450D02*
X0193107Y0208450D01*
X0193107Y0209630D02*
X0229022Y0209630D01*
X0230326Y0210810D02*
X0193107Y0210810D01*
X0193107Y0211989D02*
X0230335Y0211989D01*
X0229024Y0213169D02*
X0193107Y0213169D01*
X0193107Y0214348D02*
X0228535Y0214348D01*
X0228442Y0215528D02*
X0193107Y0215528D01*
X0193107Y0216708D02*
X0228693Y0216708D01*
X0229401Y0217887D02*
X0193107Y0217887D01*
X0193107Y0219067D02*
X0231251Y0219067D01*
X0233309Y0219067D02*
X0345290Y0219067D01*
X0345666Y0217887D02*
X0235160Y0217887D01*
X0235868Y0216708D02*
X0345666Y0216708D01*
X0345666Y0215528D02*
X0236119Y0215528D01*
X0236025Y0214348D02*
X0337005Y0214348D01*
X0340941Y0214348D02*
X0345666Y0214348D01*
X0345666Y0213169D02*
X0341335Y0213169D01*
X0341327Y0211989D02*
X0345666Y0211989D01*
X0345666Y0210810D02*
X0341331Y0210810D01*
X0341335Y0209630D02*
X0344817Y0209630D01*
X0343638Y0208450D02*
X0340938Y0208450D01*
X0342458Y0207271D02*
X0236119Y0207271D01*
X0236027Y0208450D02*
X0337009Y0208450D01*
X0340099Y0204911D02*
X0235156Y0204911D01*
X0235866Y0206091D02*
X0341278Y0206091D01*
X0344866Y0204911D02*
X0409579Y0204911D01*
X0408399Y0203732D02*
X0346046Y0203732D01*
X0346060Y0202552D02*
X0407220Y0202552D01*
X0407083Y0201373D02*
X0346831Y0201373D01*
X0347241Y0200193D02*
X0407083Y0200193D01*
X0407083Y0199013D02*
X0347241Y0199013D01*
X0346069Y0197834D02*
X0407589Y0197834D01*
X0414061Y0195475D02*
X0415548Y0195475D01*
X0415548Y0196654D02*
X0415241Y0196654D01*
X0415548Y0204911D02*
X0414430Y0204911D01*
X0415548Y0206091D02*
X0345733Y0206091D01*
X0346912Y0207271D02*
X0415548Y0207271D01*
X0415548Y0208450D02*
X0348092Y0208450D01*
X0348816Y0209630D02*
X0415548Y0209630D01*
X0415548Y0210810D02*
X0348816Y0210810D01*
X0348816Y0211989D02*
X0415548Y0211989D01*
X0415548Y0213169D02*
X0348816Y0213169D01*
X0348816Y0214348D02*
X0415548Y0214348D01*
X0415548Y0215528D02*
X0348816Y0215528D01*
X0348816Y0216708D02*
X0415548Y0216708D01*
X0415548Y0217887D02*
X0414427Y0217887D01*
X0409583Y0217887D02*
X0348816Y0217887D01*
X0349192Y0219067D02*
X0408403Y0219067D01*
X0407223Y0220246D02*
X0349603Y0220246D01*
X0349603Y0221426D02*
X0407083Y0221426D01*
X0407083Y0222606D02*
X0348432Y0222606D01*
X0346049Y0222606D02*
X0193107Y0222606D01*
X0193107Y0223785D02*
X0407083Y0223785D01*
X0407585Y0224965D02*
X0193107Y0224965D01*
X0193107Y0226145D02*
X0408765Y0226145D01*
X0409944Y0227324D02*
X0403211Y0227324D01*
X0402789Y0227149D02*
X0403946Y0227629D01*
X0404832Y0228515D01*
X0405312Y0229672D01*
X0405312Y0230925D01*
X0404832Y0232083D01*
X0403946Y0232969D01*
X0402789Y0233448D01*
X0397599Y0233448D01*
X0396441Y0232969D01*
X0395555Y0232083D01*
X0395075Y0230925D01*
X0395075Y0229672D01*
X0395555Y0228515D01*
X0396441Y0227629D01*
X0397599Y0227149D01*
X0402789Y0227149D01*
X0404821Y0228504D02*
X0415548Y0228504D01*
X0415548Y0229683D02*
X0405312Y0229683D01*
X0405312Y0230863D02*
X0415548Y0230863D01*
X0415548Y0232043D02*
X0404849Y0232043D01*
X0403335Y0233222D02*
X0415548Y0233222D01*
X0415548Y0234402D02*
X0398385Y0234402D01*
X0397826Y0233842D02*
X0399209Y0235226D01*
X0399209Y0237183D01*
X0397826Y0238567D01*
X0395869Y0238567D01*
X0395081Y0237779D01*
X0391526Y0237779D01*
X0390739Y0238567D01*
X0388782Y0238567D01*
X0387398Y0237183D01*
X0387398Y0235226D01*
X0388782Y0233842D01*
X0390739Y0233842D01*
X0391526Y0234630D01*
X0395081Y0234630D01*
X0395869Y0233842D01*
X0397826Y0233842D01*
X0397052Y0233222D02*
X0207526Y0233222D01*
X0208021Y0233427D02*
X0209073Y0234479D01*
X0209642Y0235854D01*
X0209642Y0237342D01*
X0209073Y0238717D01*
X0208021Y0239769D01*
X0206646Y0240338D01*
X0200040Y0240338D01*
X0198665Y0239769D01*
X0197613Y0238717D01*
X0197044Y0237342D01*
X0197044Y0235854D01*
X0197613Y0234479D01*
X0198665Y0233427D01*
X0200040Y0232858D01*
X0206646Y0232858D01*
X0208021Y0233427D01*
X0208995Y0234402D02*
X0388222Y0234402D01*
X0387398Y0235581D02*
X0209529Y0235581D01*
X0209642Y0236761D02*
X0387398Y0236761D01*
X0388156Y0237941D02*
X0209394Y0237941D01*
X0208669Y0239120D02*
X0415548Y0239120D01*
X0415548Y0237941D02*
X0398451Y0237941D01*
X0399209Y0236761D02*
X0415548Y0236761D01*
X0415548Y0235581D02*
X0399209Y0235581D01*
X0395309Y0234402D02*
X0391299Y0234402D01*
X0391365Y0237941D02*
X0395243Y0237941D01*
X0395538Y0232043D02*
X0193107Y0232043D01*
X0193107Y0233222D02*
X0199161Y0233222D01*
X0197691Y0234402D02*
X0193107Y0234402D01*
X0193107Y0235581D02*
X0197157Y0235581D01*
X0197044Y0236761D02*
X0193107Y0236761D01*
X0193107Y0237941D02*
X0197292Y0237941D01*
X0198017Y0239120D02*
X0193107Y0239120D01*
X0193107Y0240300D02*
X0199948Y0240300D01*
X0206739Y0240300D02*
X0415548Y0240300D01*
X0415548Y0241480D02*
X0193107Y0241480D01*
X0193107Y0242659D02*
X0415548Y0242659D01*
X0415548Y0243839D02*
X0193107Y0243839D01*
X0193107Y0245018D02*
X0396374Y0245018D01*
X0396441Y0244952D02*
X0397599Y0244472D01*
X0402789Y0244472D01*
X0403946Y0244952D01*
X0404832Y0245838D01*
X0405312Y0246995D01*
X0405312Y0248248D01*
X0404832Y0249406D01*
X0403946Y0250292D01*
X0402789Y0250771D01*
X0397599Y0250771D01*
X0396441Y0250292D01*
X0395555Y0249406D01*
X0395075Y0248248D01*
X0395075Y0246995D01*
X0395555Y0245838D01*
X0396441Y0244952D01*
X0395406Y0246198D02*
X0193107Y0246198D01*
X0193107Y0247378D02*
X0395075Y0247378D01*
X0395203Y0248557D02*
X0193107Y0248557D01*
X0193107Y0249737D02*
X0395886Y0249737D01*
X0404501Y0249737D02*
X0415548Y0249737D01*
X0415548Y0250916D02*
X0414385Y0250916D01*
X0415548Y0248557D02*
X0405184Y0248557D01*
X0405312Y0247378D02*
X0415548Y0247378D01*
X0415548Y0246198D02*
X0404981Y0246198D01*
X0404013Y0245018D02*
X0415548Y0245018D01*
X0409624Y0250916D02*
X0193107Y0250916D01*
X0193107Y0252096D02*
X0408445Y0252096D01*
X0407265Y0253276D02*
X0365247Y0253276D01*
X0364992Y0253129D02*
X0368269Y0255020D01*
X0370944Y0257696D01*
X0372836Y0260973D01*
X0373816Y0264627D01*
X0373816Y0268411D01*
X0372836Y0272066D01*
X0370944Y0275343D01*
X0368269Y0278018D01*
X0364992Y0279910D01*
X0361337Y0280889D01*
X0357554Y0280889D01*
X0353899Y0279910D01*
X0350622Y0278018D01*
X0347947Y0275343D01*
X0346055Y0272066D01*
X0345075Y0268411D01*
X0345075Y0264627D01*
X0346055Y0260973D01*
X0347947Y0257696D01*
X0350622Y0255020D01*
X0353899Y0253129D01*
X0357554Y0252149D01*
X0361337Y0252149D01*
X0364992Y0253129D01*
X0367290Y0254455D02*
X0407083Y0254455D01*
X0407083Y0255635D02*
X0368883Y0255635D01*
X0370063Y0256814D02*
X0407083Y0256814D01*
X0407543Y0257994D02*
X0371117Y0257994D01*
X0371798Y0259174D02*
X0408723Y0259174D01*
X0409902Y0260353D02*
X0372479Y0260353D01*
X0372986Y0261533D02*
X0415548Y0261533D01*
X0415548Y0262713D02*
X0373302Y0262713D01*
X0373619Y0263892D02*
X0415548Y0263892D01*
X0415548Y0265072D02*
X0373816Y0265072D01*
X0373816Y0266251D02*
X0415548Y0266251D01*
X0415548Y0267431D02*
X0373816Y0267431D01*
X0373762Y0268611D02*
X0415548Y0268611D01*
X0415548Y0269790D02*
X0373446Y0269790D01*
X0373130Y0270970D02*
X0415548Y0270970D01*
X0415548Y0272149D02*
X0372788Y0272149D01*
X0372107Y0273329D02*
X0409259Y0273329D01*
X0408079Y0274509D02*
X0371426Y0274509D01*
X0370599Y0275688D02*
X0407083Y0275688D01*
X0407083Y0276868D02*
X0369419Y0276868D01*
X0368218Y0278048D02*
X0407083Y0278048D01*
X0407083Y0279227D02*
X0366175Y0279227D01*
X0363139Y0280407D02*
X0407909Y0280407D01*
X0409088Y0281586D02*
X0193107Y0281586D01*
X0193107Y0280407D02*
X0245516Y0280407D01*
X0247317Y0280889D02*
X0243663Y0279910D01*
X0240386Y0278018D01*
X0237710Y0275343D01*
X0235819Y0272066D01*
X0234839Y0268411D01*
X0234839Y0264627D01*
X0235819Y0260973D01*
X0237710Y0257696D01*
X0240386Y0255020D01*
X0243663Y0253129D01*
X0247317Y0252149D01*
X0251101Y0252149D01*
X0254756Y0253129D01*
X0258033Y0255020D01*
X0260708Y0257696D01*
X0262600Y0260973D01*
X0263579Y0264627D01*
X0263579Y0268411D01*
X0262600Y0272066D01*
X0260708Y0275343D01*
X0258033Y0278018D01*
X0254756Y0279910D01*
X0251101Y0280889D01*
X0247317Y0280889D01*
X0242480Y0279227D02*
X0193107Y0279227D01*
X0193107Y0278048D02*
X0240437Y0278048D01*
X0239236Y0276868D02*
X0193107Y0276868D01*
X0193107Y0275688D02*
X0238056Y0275688D01*
X0237229Y0274509D02*
X0193107Y0274509D01*
X0193107Y0273329D02*
X0236548Y0273329D01*
X0235867Y0272149D02*
X0193107Y0272149D01*
X0193107Y0270970D02*
X0235525Y0270970D01*
X0235209Y0269790D02*
X0193107Y0269790D01*
X0193107Y0268611D02*
X0234893Y0268611D01*
X0234839Y0267431D02*
X0193107Y0267431D01*
X0193107Y0266251D02*
X0234839Y0266251D01*
X0234839Y0265072D02*
X0193107Y0265072D01*
X0193107Y0263892D02*
X0235036Y0263892D01*
X0235352Y0262713D02*
X0193107Y0262713D01*
X0193107Y0261533D02*
X0235668Y0261533D01*
X0236176Y0260353D02*
X0193107Y0260353D01*
X0193107Y0259174D02*
X0236857Y0259174D01*
X0237538Y0257994D02*
X0193107Y0257994D01*
X0193107Y0256814D02*
X0238592Y0256814D01*
X0239771Y0255635D02*
X0193107Y0255635D01*
X0193107Y0254455D02*
X0241365Y0254455D01*
X0243408Y0253276D02*
X0193107Y0253276D01*
X0193107Y0230863D02*
X0395075Y0230863D01*
X0395075Y0229683D02*
X0193107Y0229683D01*
X0193107Y0228504D02*
X0395566Y0228504D01*
X0397176Y0227324D02*
X0193107Y0227324D01*
X0193107Y0221426D02*
X0344879Y0221426D01*
X0344879Y0220246D02*
X0193107Y0220246D01*
X0193107Y0200193D02*
X0229423Y0200193D01*
X0228702Y0199013D02*
X0193107Y0199013D01*
X0193107Y0197834D02*
X0228442Y0197834D01*
X0228526Y0196654D02*
X0193107Y0196654D01*
X0193107Y0195475D02*
X0229015Y0195475D01*
X0230281Y0194295D02*
X0193107Y0194295D01*
X0193107Y0188397D02*
X0197687Y0188397D01*
X0197155Y0187217D02*
X0193107Y0187217D01*
X0193107Y0186038D02*
X0197044Y0186038D01*
X0197293Y0184858D02*
X0193107Y0184858D01*
X0193107Y0183678D02*
X0198021Y0183678D01*
X0199957Y0182499D02*
X0193107Y0182499D01*
X0193107Y0141212D02*
X0274767Y0141212D01*
X0275946Y0140033D02*
X0193107Y0140033D01*
X0193107Y0138853D02*
X0277126Y0138853D01*
X0278306Y0137674D02*
X0193107Y0137674D01*
X0193107Y0136494D02*
X0279485Y0136494D01*
X0280665Y0135314D02*
X0193107Y0135314D01*
X0193107Y0134135D02*
X0281844Y0134135D01*
X0283024Y0132955D02*
X0193107Y0132955D01*
X0193107Y0131775D02*
X0284204Y0131775D01*
X0285823Y0132661D02*
X0307083Y0132661D01*
X0311217Y0132955D02*
X0328934Y0132955D01*
X0328934Y0131775D02*
X0311217Y0131775D01*
X0310864Y0130596D02*
X0329287Y0130596D01*
X0330466Y0129416D02*
X0309685Y0129416D01*
X0311217Y0134135D02*
X0328934Y0134135D01*
X0327909Y0135314D02*
X0310276Y0135314D01*
X0304482Y0129416D02*
X0193107Y0129416D01*
X0193107Y0130596D02*
X0303302Y0130596D01*
X0285823Y0132661D02*
X0275194Y0143291D01*
X0275194Y0148409D01*
X0277474Y0149470D02*
X0341265Y0149470D01*
X0344151Y0157727D02*
X0345075Y0157727D01*
X0329381Y0138853D02*
X0395424Y0138853D01*
X0395075Y0137674D02*
X0330561Y0137674D01*
X0286469Y0140033D02*
X0396418Y0140033D01*
X0403969Y0140033D02*
X0415548Y0140033D01*
X0415548Y0141212D02*
X0414917Y0141212D01*
X0415548Y0138853D02*
X0404963Y0138853D01*
X0405312Y0137674D02*
X0415548Y0137674D01*
X0415548Y0136494D02*
X0405202Y0136494D01*
X0404545Y0135314D02*
X0415548Y0135314D01*
X0415548Y0127057D02*
X0278880Y0127057D01*
X0277539Y0127669D02*
X0277539Y0127669D01*
X0281463Y0125877D02*
X0415548Y0125877D01*
X0415548Y0124698D02*
X0282844Y0124698D01*
X0281504Y0125858D02*
X0281504Y0125858D01*
X0284205Y0123518D02*
X0415548Y0123518D01*
X0415548Y0122339D02*
X0404340Y0122339D01*
X0403946Y0122733D02*
X0402789Y0123212D01*
X0397599Y0123212D01*
X0396441Y0122733D01*
X0395555Y0121847D01*
X0395075Y0120689D01*
X0395075Y0119436D01*
X0395555Y0118279D01*
X0396441Y0117393D01*
X0397599Y0116913D01*
X0402789Y0116913D01*
X0403946Y0117393D01*
X0404832Y0118279D01*
X0405312Y0119436D01*
X0405312Y0120689D01*
X0404832Y0121847D01*
X0403946Y0122733D01*
X0405117Y0121159D02*
X0415548Y0121159D01*
X0415548Y0119979D02*
X0405312Y0119979D01*
X0405048Y0118800D02*
X0415548Y0118800D01*
X0415548Y0117620D02*
X0404174Y0117620D01*
X0407083Y0114081D02*
X0288383Y0114081D01*
X0288383Y0112902D02*
X0407083Y0112902D01*
X0407083Y0111722D02*
X0288383Y0111722D01*
X0288383Y0110542D02*
X0407083Y0110542D01*
X0407871Y0109363D02*
X0288383Y0109363D01*
X0288383Y0108183D02*
X0409050Y0108183D01*
X0414959Y0108183D02*
X0415548Y0108183D01*
X0415548Y0107004D02*
X0288383Y0107004D01*
X0288383Y0105824D02*
X0415548Y0105824D01*
X0415548Y0104644D02*
X0288383Y0104644D01*
X0288383Y0103465D02*
X0415548Y0103465D01*
X0415548Y0102285D02*
X0288383Y0102285D01*
X0288352Y0115261D02*
X0408117Y0115261D01*
X0409297Y0116440D02*
X0288005Y0116440D01*
X0287659Y0117620D02*
X0396213Y0117620D01*
X0395339Y0118800D02*
X0287312Y0118800D01*
X0287155Y0119337D02*
X0287155Y0119337D01*
X0286742Y0119979D02*
X0395075Y0119979D01*
X0395270Y0121159D02*
X0285984Y0121159D01*
X0285226Y0122339D02*
X0396047Y0122339D01*
X0414712Y0116440D02*
X0415548Y0116440D01*
X0415548Y0162445D02*
X0414103Y0162445D01*
X0415283Y0163625D02*
X0415548Y0163625D01*
X0415245Y0226145D02*
X0415548Y0226145D01*
X0415548Y0227324D02*
X0414065Y0227324D01*
X0415286Y0259174D02*
X0415548Y0259174D01*
X0415548Y0260353D02*
X0414107Y0260353D01*
X0414750Y0273329D02*
X0415548Y0273329D01*
X0415548Y0281586D02*
X0414921Y0281586D01*
X0415548Y0282766D02*
X0403965Y0282766D01*
X0403946Y0282747D02*
X0404832Y0283633D01*
X0405312Y0284791D01*
X0405312Y0286043D01*
X0404832Y0287201D01*
X0403946Y0288087D01*
X0402789Y0288567D01*
X0397599Y0288567D01*
X0396441Y0288087D01*
X0395555Y0287201D01*
X0395075Y0286043D01*
X0395075Y0284791D01*
X0395555Y0283633D01*
X0396441Y0282747D01*
X0397599Y0282267D01*
X0402789Y0282267D01*
X0403946Y0282747D01*
X0404962Y0283946D02*
X0415548Y0283946D01*
X0415548Y0285125D02*
X0405312Y0285125D01*
X0405203Y0286305D02*
X0415548Y0286305D01*
X0415548Y0287484D02*
X0404549Y0287484D01*
X0399209Y0290344D02*
X0397826Y0288960D01*
X0395869Y0288960D01*
X0395081Y0289748D01*
X0391920Y0289748D01*
X0391133Y0288960D01*
X0389176Y0288960D01*
X0387792Y0290344D01*
X0387792Y0292301D01*
X0389176Y0293685D01*
X0391133Y0293685D01*
X0391920Y0292897D01*
X0395081Y0292897D01*
X0395869Y0293685D01*
X0397826Y0293685D01*
X0399209Y0292301D01*
X0399209Y0290344D01*
X0399209Y0291023D02*
X0415548Y0291023D01*
X0415548Y0289844D02*
X0398709Y0289844D01*
X0399209Y0292203D02*
X0415548Y0292203D01*
X0415548Y0293383D02*
X0398128Y0293383D01*
X0395566Y0293383D02*
X0391435Y0293383D01*
X0388874Y0293383D02*
X0193107Y0293383D01*
X0193107Y0294562D02*
X0211881Y0294562D01*
X0211062Y0294901D02*
X0213334Y0293960D01*
X0215793Y0293960D01*
X0218065Y0294901D01*
X0219804Y0296640D01*
X0220745Y0298912D01*
X0220745Y0301371D01*
X0219804Y0303643D01*
X0218065Y0305381D01*
X0215793Y0306323D01*
X0213334Y0306323D01*
X0211062Y0305381D01*
X0209324Y0303643D01*
X0208383Y0301371D01*
X0208383Y0298912D01*
X0209324Y0296640D01*
X0211062Y0294901D01*
X0210222Y0295742D02*
X0193107Y0295742D01*
X0193107Y0296921D02*
X0209207Y0296921D01*
X0208718Y0298101D02*
X0193107Y0298101D01*
X0193107Y0299281D02*
X0208383Y0299281D01*
X0208383Y0300460D02*
X0193107Y0300460D01*
X0193107Y0301640D02*
X0208494Y0301640D01*
X0208983Y0302819D02*
X0193107Y0302819D01*
X0193107Y0303999D02*
X0209680Y0303999D01*
X0210859Y0305179D02*
X0193107Y0305179D01*
X0193107Y0306358D02*
X0258446Y0306358D01*
X0258792Y0305179D02*
X0218268Y0305179D01*
X0219447Y0303999D02*
X0259139Y0303999D01*
X0259296Y0303465D02*
X0259296Y0303465D01*
X0259710Y0302819D02*
X0220145Y0302819D01*
X0220633Y0301640D02*
X0260469Y0301640D01*
X0261227Y0300460D02*
X0220745Y0300460D01*
X0220745Y0299281D02*
X0262250Y0299281D01*
X0261652Y0299798D02*
X0261652Y0299798D01*
X0263611Y0298101D02*
X0220409Y0298101D01*
X0219920Y0296921D02*
X0264996Y0296921D01*
X0264946Y0296944D02*
X0264946Y0296944D01*
X0267579Y0295742D02*
X0218905Y0295742D01*
X0217246Y0294562D02*
X0272884Y0294562D01*
X0273566Y0294562D02*
X0415548Y0294562D01*
X0415548Y0295742D02*
X0278871Y0295742D01*
X0281454Y0296921D02*
X0415548Y0296921D01*
X0415548Y0298101D02*
X0282839Y0298101D01*
X0284201Y0299281D02*
X0415548Y0299281D01*
X0415548Y0300460D02*
X0404337Y0300460D01*
X0403946Y0300070D02*
X0404832Y0300956D01*
X0405312Y0302113D01*
X0405312Y0303366D01*
X0404832Y0304524D01*
X0403946Y0305410D01*
X0402789Y0305889D01*
X0397599Y0305889D01*
X0396441Y0305410D01*
X0395555Y0304524D01*
X0395075Y0303366D01*
X0395075Y0302113D01*
X0395555Y0300956D01*
X0396441Y0300070D01*
X0397599Y0299590D01*
X0402789Y0299590D01*
X0403946Y0300070D01*
X0405116Y0301640D02*
X0415548Y0301640D01*
X0415548Y0302819D02*
X0405312Y0302819D01*
X0405050Y0303999D02*
X0415548Y0303999D01*
X0415548Y0305179D02*
X0404177Y0305179D01*
X0407083Y0308717D02*
X0288383Y0308717D01*
X0288350Y0307538D02*
X0408121Y0307538D01*
X0409300Y0306358D02*
X0288004Y0306358D01*
X0287658Y0305179D02*
X0396210Y0305179D01*
X0395338Y0303999D02*
X0287311Y0303999D01*
X0287155Y0303465D02*
X0287155Y0303465D01*
X0286740Y0302819D02*
X0395075Y0302819D01*
X0395272Y0301640D02*
X0285982Y0301640D01*
X0285223Y0300460D02*
X0396050Y0300460D01*
X0387792Y0292203D02*
X0193107Y0292203D01*
X0193107Y0291023D02*
X0387792Y0291023D01*
X0388292Y0289844D02*
X0193107Y0289844D01*
X0193107Y0288664D02*
X0415548Y0288664D01*
X0415548Y0306358D02*
X0414709Y0306358D01*
X0414963Y0314616D02*
X0415548Y0314616D01*
X0415548Y0315795D02*
X0288383Y0315795D01*
X0288383Y0314616D02*
X0409047Y0314616D01*
X0407867Y0313436D02*
X0288383Y0313436D01*
X0288383Y0312256D02*
X0407083Y0312256D01*
X0407083Y0311077D02*
X0288383Y0311077D01*
X0288383Y0309897D02*
X0407083Y0309897D01*
X0415548Y0316975D02*
X0288383Y0316975D01*
X0288383Y0318154D02*
X0415548Y0318154D01*
X0415548Y0319334D02*
X0288383Y0319334D01*
X0288383Y0320514D02*
X0415548Y0320514D01*
X0395838Y0287484D02*
X0193107Y0287484D01*
X0193107Y0286305D02*
X0395184Y0286305D01*
X0395075Y0285125D02*
X0193107Y0285125D01*
X0193107Y0283946D02*
X0395425Y0283946D01*
X0396422Y0282766D02*
X0193107Y0282766D01*
X0193107Y0307538D02*
X0258100Y0307538D01*
X0258068Y0308717D02*
X0193107Y0308717D01*
X0193107Y0309897D02*
X0258068Y0309897D01*
X0258068Y0311077D02*
X0193107Y0311077D01*
X0193107Y0312256D02*
X0258068Y0312256D01*
X0258068Y0313436D02*
X0193107Y0313436D01*
X0193107Y0314616D02*
X0258068Y0314616D01*
X0258068Y0315795D02*
X0193107Y0315795D01*
X0193107Y0316975D02*
X0258068Y0316975D01*
X0258068Y0318154D02*
X0193107Y0318154D01*
X0193107Y0319334D02*
X0258068Y0319334D01*
X0258068Y0320514D02*
X0193107Y0320514D01*
X0252903Y0280407D02*
X0355752Y0280407D01*
X0352716Y0279227D02*
X0255939Y0279227D01*
X0257982Y0278048D02*
X0350673Y0278048D01*
X0349472Y0276868D02*
X0259183Y0276868D01*
X0260363Y0275688D02*
X0348292Y0275688D01*
X0347465Y0274509D02*
X0261190Y0274509D01*
X0261871Y0273329D02*
X0346784Y0273329D01*
X0346103Y0272149D02*
X0262552Y0272149D01*
X0262894Y0270970D02*
X0345761Y0270970D01*
X0345445Y0269790D02*
X0263210Y0269790D01*
X0263526Y0268611D02*
X0345129Y0268611D01*
X0345075Y0267431D02*
X0263579Y0267431D01*
X0263579Y0266251D02*
X0345075Y0266251D01*
X0345075Y0265072D02*
X0263579Y0265072D01*
X0263382Y0263892D02*
X0345272Y0263892D01*
X0345589Y0262713D02*
X0263066Y0262713D01*
X0262750Y0261533D02*
X0345905Y0261533D01*
X0346412Y0260353D02*
X0262242Y0260353D01*
X0261561Y0259174D02*
X0347093Y0259174D01*
X0347774Y0257994D02*
X0260880Y0257994D01*
X0259827Y0256814D02*
X0348828Y0256814D01*
X0350008Y0255635D02*
X0258647Y0255635D01*
X0257054Y0254455D02*
X0351601Y0254455D01*
X0353644Y0253276D02*
X0255011Y0253276D01*
X0268911Y0295133D02*
X0268911Y0295133D01*
X0284798Y0123004D02*
X0284798Y0123004D01*
X0504327Y0199984D02*
X0508264Y0196047D01*
X0504327Y0222819D02*
X0508264Y0226756D01*
D21*
X0495666Y0225968D03*
X0504327Y0243685D03*
X0483855Y0266913D03*
X0483855Y0321637D03*
X0396847Y0291323D03*
X0390154Y0291323D03*
X0394485Y0299197D03*
X0394485Y0244078D03*
X0396847Y0236204D03*
X0389760Y0236204D03*
X0347241Y0220456D03*
X0338973Y0212976D03*
X0338973Y0209826D03*
X0343698Y0202740D03*
X0344879Y0199984D03*
X0334249Y0219275D03*
X0311020Y0222819D03*
X0306690Y0215732D03*
X0303934Y0215732D03*
X0299603Y0230299D03*
X0245272Y0225181D03*
X0241335Y0225181D03*
X0237398Y0225181D03*
X0279131Y0191716D03*
X0281099Y0189354D03*
X0279131Y0186204D03*
X0287398Y0170063D03*
X0290548Y0169275D03*
X0284249Y0168094D03*
X0273225Y0158252D03*
X0275194Y0148409D03*
X0277949Y0146047D03*
X0303934Y0168488D03*
X0306690Y0176756D03*
X0311808Y0180693D03*
X0317320Y0177543D03*
X0314170Y0163370D03*
X0311414Y0158252D03*
X0342910Y0159826D03*
X0342910Y0164157D03*
X0343304Y0169669D03*
X0342516Y0151559D03*
X0394485Y0133842D03*
X0394485Y0188960D03*
X0483855Y0155889D03*
X0504327Y0179118D03*
X0483855Y0101165D03*
D22*
X0347241Y0209826D02*
X0331493Y0194078D01*
X0277949Y0194078D01*
X0273225Y0189354D01*
X0273225Y0158252D01*
X0232280Y0207464D02*
X0235430Y0210614D01*
X0338186Y0210614D01*
X0338973Y0209826D01*
X0338186Y0212189D02*
X0235430Y0212189D01*
X0232280Y0215338D01*
X0338186Y0212189D02*
X0338973Y0212976D01*
X0347241Y0209826D02*
X0347241Y0220456D01*
X0389760Y0236204D02*
X0396847Y0236204D01*
X0396847Y0291323D02*
X0390154Y0291323D01*
D23*
X0495666Y0225968D02*
X0495666Y0224393D01*
X0494327Y0223055D01*
X0494327Y0218401D01*
X0499327Y0218401D02*
X0499327Y0213882D01*
X0499209Y0213763D01*
X0499209Y0223212D01*
X0504327Y0228330D01*
X0508264Y0226756D02*
X0508264Y0229905D01*
X0504327Y0233842D01*
X0504327Y0243685D01*
X0522831Y0223606D02*
X0526375Y0227149D01*
X0526375Y0299984D01*
X0523619Y0302740D01*
X0517320Y0302740D01*
X0517123Y0302937D01*
X0504327Y0283448D02*
X0504327Y0278330D01*
X0511414Y0271244D01*
X0511414Y0225574D01*
X0509446Y0223606D01*
X0509446Y0218488D01*
X0509359Y0218401D01*
X0509327Y0218401D01*
X0514170Y0218488D02*
X0514170Y0222031D01*
X0515745Y0223606D01*
X0522831Y0223606D01*
X0514327Y0218401D02*
X0514257Y0218401D01*
X0514170Y0218488D01*
X0514564Y0209039D02*
X0514564Y0200378D01*
X0515745Y0199197D01*
X0522044Y0199197D01*
X0526375Y0194866D01*
X0526375Y0122425D01*
X0524012Y0120063D01*
X0517320Y0120063D01*
X0517123Y0119866D01*
X0504327Y0139354D02*
X0504327Y0144472D01*
X0511414Y0151559D01*
X0511414Y0197622D01*
X0509446Y0199590D01*
X0509446Y0208645D01*
X0509327Y0208763D01*
X0509327Y0204401D01*
X0504327Y0204401D02*
X0504327Y0199984D01*
X0499603Y0199197D02*
X0499603Y0204315D01*
X0499516Y0204401D01*
X0499327Y0204401D01*
X0499603Y0199197D02*
X0504327Y0194472D01*
X0508264Y0192897D02*
X0504327Y0188960D01*
X0504327Y0179118D01*
X0508264Y0192897D02*
X0508264Y0196047D01*
X0514327Y0204401D02*
X0514426Y0208901D01*
X0514564Y0209039D01*
X0504327Y0218401D02*
X0504327Y0222819D01*
D24*
X0494327Y0204401D02*
X0494178Y0204401D01*
X0494091Y0204315D01*
X0483855Y0204315D01*
X0483855Y0155889D01*
X0483855Y0101165D01*
X0483855Y0204315D02*
X0483855Y0266913D01*
X0483855Y0321637D01*
D25*
X0343698Y0202740D02*
X0332674Y0191716D01*
X0279131Y0191716D01*
X0281099Y0189354D02*
X0334249Y0189354D01*
X0344879Y0199984D01*
M02*
