G75*
%MOIN*%
%OFA0B0*%
%FSLAX25Y25*%
%IPPOS*%
%LPD*%
%AMOC8*
5,1,8,0,0,1.08239X$1,22.5*
%
%ADD10C,0.01200*%
%ADD11C,0.00787*%
%ADD12C,0.00800*%
D10*
X0105885Y0181149D02*
X0111690Y0181149D01*
X0111690Y0185019D02*
X0105885Y0185019D01*
X0107820Y0183084D01*
X0105885Y0181149D01*
X0107820Y0187595D02*
X0111690Y0187595D01*
X0108788Y0187595D02*
X0108788Y0191465D01*
X0107820Y0191465D02*
X0105885Y0189530D01*
X0107820Y0187595D01*
X0107820Y0191465D02*
X0111690Y0191465D01*
X0111690Y0194040D02*
X0111690Y0197910D01*
X0105885Y0197910D01*
X0105885Y0194040D01*
X0108788Y0195975D02*
X0108788Y0197910D01*
X0108788Y0200486D02*
X0106853Y0200486D01*
X0105885Y0201453D01*
X0105885Y0204356D01*
X0111690Y0204356D01*
X0109755Y0204356D02*
X0109755Y0201453D01*
X0108788Y0200486D01*
X0109755Y0202421D02*
X0111690Y0200486D01*
X0111690Y0208866D02*
X0105885Y0208866D01*
X0105885Y0210801D02*
X0105885Y0206931D01*
X0101190Y0207579D02*
X0101190Y0204676D01*
X0100223Y0203709D01*
X0099255Y0203709D01*
X0098288Y0204676D01*
X0098288Y0207579D01*
X0099255Y0210154D02*
X0100223Y0210154D01*
X0101190Y0211122D01*
X0101190Y0213057D01*
X0100223Y0214024D01*
X0098288Y0213057D02*
X0097320Y0214024D01*
X0096353Y0214024D01*
X0095385Y0213057D01*
X0095385Y0211122D01*
X0096353Y0210154D01*
X0098288Y0211122D02*
X0099255Y0210154D01*
X0098288Y0211122D02*
X0098288Y0213057D01*
X0100223Y0216600D02*
X0095385Y0216600D01*
X0095385Y0220470D02*
X0100223Y0220470D01*
X0101190Y0219502D01*
X0101190Y0217567D01*
X0100223Y0216600D01*
X0105885Y0216279D02*
X0106853Y0217247D01*
X0107820Y0217247D01*
X0108788Y0216279D01*
X0108788Y0214344D01*
X0109755Y0213377D01*
X0110723Y0213377D01*
X0111690Y0214344D01*
X0111690Y0216279D01*
X0110723Y0217247D01*
X0111690Y0219822D02*
X0105885Y0219822D01*
X0105885Y0216279D02*
X0105885Y0214344D01*
X0106853Y0213377D01*
X0111690Y0219822D02*
X0105885Y0223692D01*
X0111690Y0223692D01*
X0111690Y0226268D02*
X0105885Y0226268D01*
X0105885Y0230138D02*
X0111690Y0230138D01*
X0109755Y0228203D01*
X0111690Y0226268D01*
X0110723Y0232713D02*
X0106853Y0232713D01*
X0105885Y0233681D01*
X0105885Y0235616D01*
X0106853Y0236583D01*
X0110723Y0236583D01*
X0111690Y0235616D01*
X0111690Y0233681D01*
X0110723Y0232713D01*
X0110723Y0239159D02*
X0106853Y0239159D01*
X0105885Y0240126D01*
X0105885Y0243029D01*
X0111690Y0243029D01*
X0111690Y0240126D01*
X0110723Y0239159D01*
X0110984Y0271599D02*
X0111952Y0272567D01*
X0111952Y0274502D01*
X0110984Y0275469D01*
X0107114Y0275469D01*
X0106147Y0274502D01*
X0106147Y0272567D01*
X0107114Y0271599D01*
X0107114Y0278045D02*
X0106147Y0279012D01*
X0106147Y0281915D01*
X0111952Y0281915D01*
X0111952Y0279012D01*
X0110984Y0278045D01*
X0107114Y0278045D01*
X0106147Y0284490D02*
X0110017Y0284490D01*
X0111952Y0286425D01*
X0110017Y0288360D01*
X0106147Y0288360D01*
X0107114Y0290936D02*
X0106147Y0291903D01*
X0106147Y0293838D01*
X0107114Y0294806D01*
X0108082Y0294806D01*
X0109049Y0293838D01*
X0109049Y0290936D01*
X0110984Y0290936D02*
X0107114Y0290936D01*
X0110984Y0290936D02*
X0111952Y0291903D01*
X0111952Y0293838D01*
X0110984Y0294806D01*
X0107114Y0298349D02*
X0105179Y0300284D01*
X0106147Y0301251D01*
X0106147Y0303827D02*
X0107114Y0305762D01*
X0109049Y0307697D01*
X0109049Y0304794D01*
X0110017Y0303827D01*
X0110984Y0303827D01*
X0111952Y0304794D01*
X0111952Y0306729D01*
X0110984Y0307697D01*
X0109049Y0307697D01*
X0107114Y0298349D02*
X0106147Y0297381D01*
X0101190Y0207579D02*
X0095385Y0207579D01*
X0095385Y0204676D01*
X0096353Y0203709D01*
X0097320Y0203709D01*
X0098288Y0204676D01*
D11*
X0150294Y0106147D02*
X0151875Y0104566D01*
X0152025Y0104552D01*
X0153876Y0105804D01*
X0153987Y0105815D01*
X0155825Y0105054D01*
X0155896Y0104967D01*
X0156319Y0102773D01*
X0156435Y0102677D01*
X0158672Y0102677D01*
X0158788Y0102773D01*
X0159211Y0104967D01*
X0159282Y0105054D01*
X0161120Y0105815D01*
X0161231Y0105804D01*
X0163082Y0104552D01*
X0163232Y0104566D01*
X0164814Y0106147D01*
X0164828Y0106297D01*
X0163576Y0108148D01*
X0163564Y0108260D01*
X0163913Y0109101D01*
X0163849Y0109256D01*
X0160053Y0110805D01*
X0160233Y0110417D02*
X0158068Y0108645D01*
X0155509Y0109433D01*
X0154327Y0111795D01*
X0155705Y0114551D01*
X0158264Y0114748D01*
X0160233Y0113173D01*
X0163579Y0114748D01*
X0162989Y0115535D01*
X0164564Y0117307D01*
X0163186Y0118488D01*
X0161217Y0117504D01*
X0158855Y0118488D01*
X0158461Y0120653D01*
X0156690Y0120653D01*
X0156099Y0118291D01*
X0153934Y0117504D01*
X0152359Y0118685D01*
X0150784Y0117307D01*
X0151965Y0115535D01*
X0150981Y0113173D01*
X0148816Y0112779D01*
X0148816Y0110811D01*
X0151178Y0110417D01*
X0151965Y0108055D01*
X0150784Y0106283D01*
X0151965Y0105102D01*
X0153934Y0106283D01*
X0156099Y0105299D01*
X0156690Y0103134D01*
X0158461Y0103134D01*
X0158855Y0105299D01*
X0161217Y0106283D01*
X0163186Y0105102D01*
X0164367Y0106283D01*
X0163186Y0108055D01*
X0163383Y0109039D01*
X0160233Y0110417D01*
X0159382Y0109721D02*
X0161824Y0109721D01*
X0163362Y0108935D02*
X0158421Y0108935D01*
X0157127Y0108935D02*
X0151672Y0108935D01*
X0151543Y0108260D02*
X0151532Y0108148D01*
X0150279Y0106297D01*
X0150294Y0106147D01*
X0150980Y0106577D02*
X0164171Y0106577D01*
X0163875Y0105791D02*
X0162037Y0105791D01*
X0160036Y0105791D02*
X0155016Y0105791D01*
X0156179Y0105005D02*
X0158802Y0105005D01*
X0158659Y0104219D02*
X0156393Y0104219D01*
X0156608Y0103433D02*
X0158516Y0103433D01*
X0153114Y0105791D02*
X0151276Y0105791D01*
X0151504Y0107363D02*
X0163647Y0107363D01*
X0163205Y0108149D02*
X0151934Y0108149D01*
X0151543Y0108260D02*
X0150782Y0110098D01*
X0150695Y0110168D01*
X0148501Y0110592D01*
X0148405Y0110708D01*
X0148405Y0112944D01*
X0148501Y0113060D01*
X0150695Y0113484D01*
X0150782Y0113554D01*
X0151543Y0115392D01*
X0151532Y0115504D01*
X0150279Y0117355D01*
X0150294Y0117504D01*
X0151875Y0119086D01*
X0152025Y0119100D01*
X0153876Y0117848D01*
X0153987Y0117837D01*
X0155825Y0118598D01*
X0155896Y0118685D01*
X0156319Y0120879D01*
X0156435Y0120975D01*
X0158672Y0120975D01*
X0158788Y0120879D01*
X0159211Y0118685D01*
X0159282Y0118598D01*
X0161120Y0117837D01*
X0161231Y0117848D01*
X0163082Y0119100D01*
X0163232Y0119086D01*
X0164814Y0117504D01*
X0164828Y0117355D01*
X0163576Y0115504D01*
X0163564Y0115392D01*
X0163913Y0114551D01*
X0163849Y0114396D01*
X0160053Y0112847D01*
X0159636Y0113650D02*
X0161247Y0113650D01*
X0162917Y0114436D02*
X0158654Y0114436D01*
X0159839Y0112976D02*
X0159792Y0113066D01*
X0159741Y0113154D01*
X0159687Y0113241D01*
X0159630Y0113325D01*
X0159569Y0113407D01*
X0159506Y0113486D01*
X0159439Y0113563D01*
X0159370Y0113637D01*
X0159297Y0113709D01*
X0159222Y0113777D01*
X0159144Y0113843D01*
X0159064Y0113906D01*
X0158982Y0113965D01*
X0158897Y0114022D01*
X0158810Y0114075D01*
X0158721Y0114124D01*
X0158631Y0114171D01*
X0158538Y0114213D01*
X0158444Y0114252D01*
X0158349Y0114288D01*
X0158252Y0114320D01*
X0158155Y0114348D01*
X0158056Y0114372D01*
X0157956Y0114392D01*
X0157856Y0114409D01*
X0157755Y0114421D01*
X0157653Y0114430D01*
X0157552Y0114435D01*
X0157450Y0114436D01*
X0157348Y0114433D01*
X0157247Y0114426D01*
X0157145Y0114415D01*
X0157045Y0114400D01*
X0156945Y0114382D01*
X0156845Y0114359D01*
X0156747Y0114333D01*
X0156650Y0114303D01*
X0156554Y0114269D01*
X0156459Y0114232D01*
X0156366Y0114191D01*
X0156275Y0114146D01*
X0156185Y0114098D01*
X0156097Y0114047D01*
X0156012Y0113992D01*
X0155928Y0113934D01*
X0155847Y0113873D01*
X0155768Y0113808D01*
X0155692Y0113741D01*
X0155618Y0113671D01*
X0155547Y0113598D01*
X0155479Y0113522D01*
X0155414Y0113444D01*
X0155352Y0113363D01*
X0155293Y0113280D01*
X0155238Y0113195D01*
X0155185Y0113108D01*
X0155136Y0113018D01*
X0155091Y0112927D01*
X0155049Y0112835D01*
X0155011Y0112740D01*
X0154976Y0112645D01*
X0154946Y0112548D01*
X0154918Y0112450D01*
X0154895Y0112351D01*
X0154876Y0112251D01*
X0154860Y0112150D01*
X0154848Y0112049D01*
X0154840Y0111948D01*
X0154836Y0111846D01*
X0154836Y0111744D01*
X0154840Y0111642D01*
X0154848Y0111541D01*
X0154860Y0111440D01*
X0154876Y0111339D01*
X0154895Y0111239D01*
X0154918Y0111140D01*
X0154946Y0111042D01*
X0154976Y0110945D01*
X0155011Y0110850D01*
X0155049Y0110755D01*
X0155091Y0110663D01*
X0155136Y0110572D01*
X0155185Y0110482D01*
X0155238Y0110395D01*
X0155293Y0110310D01*
X0155352Y0110227D01*
X0155414Y0110146D01*
X0155479Y0110068D01*
X0155547Y0109992D01*
X0155618Y0109919D01*
X0155692Y0109849D01*
X0155768Y0109782D01*
X0155847Y0109717D01*
X0155928Y0109656D01*
X0156012Y0109598D01*
X0156097Y0109543D01*
X0156185Y0109492D01*
X0156275Y0109444D01*
X0156366Y0109399D01*
X0156459Y0109358D01*
X0156554Y0109321D01*
X0156650Y0109287D01*
X0156747Y0109257D01*
X0156845Y0109231D01*
X0156945Y0109208D01*
X0157045Y0109190D01*
X0157145Y0109175D01*
X0157247Y0109164D01*
X0157348Y0109157D01*
X0157450Y0109154D01*
X0157552Y0109155D01*
X0157653Y0109160D01*
X0157755Y0109169D01*
X0157856Y0109181D01*
X0157956Y0109198D01*
X0158056Y0109218D01*
X0158155Y0109242D01*
X0158252Y0109270D01*
X0158349Y0109302D01*
X0158444Y0109338D01*
X0158538Y0109377D01*
X0158631Y0109419D01*
X0158721Y0109466D01*
X0158810Y0109515D01*
X0158897Y0109568D01*
X0158982Y0109625D01*
X0159064Y0109684D01*
X0159144Y0109747D01*
X0159222Y0109813D01*
X0159297Y0109881D01*
X0159370Y0109953D01*
X0159439Y0110027D01*
X0159506Y0110104D01*
X0159569Y0110183D01*
X0159630Y0110265D01*
X0159687Y0110349D01*
X0159741Y0110436D01*
X0159792Y0110524D01*
X0159839Y0110614D01*
X0155365Y0109721D02*
X0151410Y0109721D01*
X0150640Y0110507D02*
X0154972Y0110507D01*
X0154579Y0111293D02*
X0148816Y0111293D01*
X0148816Y0112078D02*
X0154469Y0112078D01*
X0154862Y0112864D02*
X0149284Y0112864D01*
X0151180Y0113650D02*
X0155255Y0113650D01*
X0155648Y0114436D02*
X0151507Y0114436D01*
X0151835Y0115222D02*
X0163224Y0115222D01*
X0163409Y0116008D02*
X0151650Y0116008D01*
X0151126Y0116794D02*
X0164108Y0116794D01*
X0164245Y0117580D02*
X0161370Y0117580D01*
X0161034Y0117580D02*
X0154143Y0117580D01*
X0153832Y0117580D02*
X0151096Y0117580D01*
X0151994Y0118366D02*
X0152784Y0118366D01*
X0156118Y0118366D02*
X0159148Y0118366D01*
X0158734Y0119152D02*
X0156314Y0119152D01*
X0156511Y0119938D02*
X0158591Y0119938D01*
X0162942Y0118366D02*
X0163328Y0118366D01*
X0491335Y0204708D02*
X0491335Y0218094D01*
X0488579Y0219669D02*
X0488581Y0219738D01*
X0488587Y0219806D01*
X0488597Y0219874D01*
X0488611Y0219941D01*
X0488629Y0220008D01*
X0488650Y0220073D01*
X0488676Y0220137D01*
X0488705Y0220199D01*
X0488737Y0220259D01*
X0488773Y0220318D01*
X0488813Y0220374D01*
X0488855Y0220428D01*
X0488901Y0220479D01*
X0488950Y0220528D01*
X0489001Y0220574D01*
X0489055Y0220616D01*
X0489111Y0220656D01*
X0489169Y0220692D01*
X0489230Y0220724D01*
X0489292Y0220753D01*
X0489356Y0220779D01*
X0489421Y0220800D01*
X0489488Y0220818D01*
X0489555Y0220832D01*
X0489623Y0220842D01*
X0489691Y0220848D01*
X0489760Y0220850D01*
X0489829Y0220848D01*
X0489897Y0220842D01*
X0489965Y0220832D01*
X0490032Y0220818D01*
X0490099Y0220800D01*
X0490164Y0220779D01*
X0490228Y0220753D01*
X0490290Y0220724D01*
X0490350Y0220692D01*
X0490409Y0220656D01*
X0490465Y0220616D01*
X0490519Y0220574D01*
X0490570Y0220528D01*
X0490619Y0220479D01*
X0490665Y0220428D01*
X0490707Y0220374D01*
X0490747Y0220318D01*
X0490783Y0220259D01*
X0490815Y0220199D01*
X0490844Y0220137D01*
X0490870Y0220073D01*
X0490891Y0220008D01*
X0490909Y0219941D01*
X0490923Y0219874D01*
X0490933Y0219806D01*
X0490939Y0219738D01*
X0490941Y0219669D01*
X0490939Y0219600D01*
X0490933Y0219532D01*
X0490923Y0219464D01*
X0490909Y0219397D01*
X0490891Y0219330D01*
X0490870Y0219265D01*
X0490844Y0219201D01*
X0490815Y0219139D01*
X0490783Y0219078D01*
X0490747Y0219020D01*
X0490707Y0218964D01*
X0490665Y0218910D01*
X0490619Y0218859D01*
X0490570Y0218810D01*
X0490519Y0218764D01*
X0490465Y0218722D01*
X0490409Y0218682D01*
X0490351Y0218646D01*
X0490290Y0218614D01*
X0490228Y0218585D01*
X0490164Y0218559D01*
X0490099Y0218538D01*
X0490032Y0218520D01*
X0489965Y0218506D01*
X0489897Y0218496D01*
X0489829Y0218490D01*
X0489760Y0218488D01*
X0489691Y0218490D01*
X0489623Y0218496D01*
X0489555Y0218506D01*
X0489488Y0218520D01*
X0489421Y0218538D01*
X0489356Y0218559D01*
X0489292Y0218585D01*
X0489230Y0218614D01*
X0489169Y0218646D01*
X0489111Y0218682D01*
X0489055Y0218722D01*
X0489001Y0218764D01*
X0488950Y0218810D01*
X0488901Y0218859D01*
X0488855Y0218910D01*
X0488813Y0218964D01*
X0488773Y0219020D01*
X0488737Y0219078D01*
X0488705Y0219139D01*
X0488676Y0219201D01*
X0488650Y0219265D01*
X0488629Y0219330D01*
X0488611Y0219397D01*
X0488597Y0219464D01*
X0488587Y0219532D01*
X0488581Y0219600D01*
X0488579Y0219669D01*
X0517320Y0218094D02*
X0517320Y0204708D01*
D12*
X0518901Y0205632D02*
X0518901Y0206678D01*
X0519424Y0207201D01*
X0519424Y0208733D02*
X0518901Y0209257D01*
X0518901Y0210303D01*
X0519424Y0210827D01*
X0521517Y0210827D01*
X0522040Y0210303D01*
X0522040Y0209257D01*
X0521517Y0208733D01*
X0519424Y0208733D01*
X0521517Y0207201D02*
X0522040Y0206678D01*
X0522040Y0205632D01*
X0521517Y0205108D01*
X0519424Y0205108D01*
X0518901Y0205632D01*
X0518901Y0212359D02*
X0522040Y0212359D01*
X0518901Y0214452D01*
X0522040Y0214452D01*
X0522040Y0215984D02*
X0522040Y0218077D01*
X0521517Y0218077D01*
X0519424Y0215984D01*
X0518901Y0215984D01*
M02*
